Title:
The Day of the Crows Aka Le Jour des Corneilles

Country:
France/2012

Language:
French

Subtitle:
English

Director:
Jean-Christophe Dessaint

Writers:
Jean-François Beauchemin (novel), Amandine Taffin (adaptation)

Stars:
Jean Reno, Lorànt Deutsch, Isabelle Carré

Synopsis:
Courge lives in the heart of the forest, raised by his father, a tyrannical giant who reigns triumphant and prevents his son from exploring beyond limited boundaries. Ignorant about the ways of men, the boy grows up wild, with the placid ghosts who haunt the forest his only company. That is until the day that he is forced to go to the nearest village, where he mets young Manon...

Imdb: 
http://www.imdb.com/title/tt1891845/

Trailer: 
http://www.bandes-annonces.fr/film-2012/bande-annonce-lejourdescorneilles.html

Media Info:

Geral
Complete name                            : The.Day.of.the.Crows[Le.Jour.des.Corneilles].BRRip.XviD.HORiZON-ArtSubs
Format                                   : AVI
Format/Info                              : Audio Video Interleave
File size                                : 1.36 GiB
Duration                                 : 1h 34mn
Overall bit rate                         : 2 062 Kbps

Vídeo
ID                                       : 0
Format                                   : MPEG-4 Visual
Format profile                           : Advanced Simple@L5
Format settings, BVOP                    : 1
Format settings, QPel                    : Não
Format settings, GMC                     : Sem warppoints
Format settings, Matrix                  : Default (MPEG)
Muxing mode                              : Packed bitstream
Codec ID                                 : XVID
Codec ID/Hint                            : XviD
Duration                                 : 1h 34mn
Bit rate                                 : 1 605 Kbps
Width                                    : 640 pixels
Height                                   : 272 pixels
Display aspect ratio                     : 2.35:1
Frame rate                               : 23.976 fps
Color space                              : YUV
Chroma subsampling                       : 4:2:0
Bit depth                                : 8 bits
Scan type                                : Progressivo
Bits/(Pixel*Frame)                       : 0.385
Stream size                              : 1.06 GiB (78%)
Writing library                          : XviD 1.2.1 (UTC 2008-12-04)

Áudio
ID                                       : 1
Format                                   : AC-3
Format/Info                              : Audio Coding 3
Mode extension                           : CM (complete main)
Format settings, Endianness              : Big
Codec ID                                 : 2000
Duration                                 : 1h 34mn
Source duration                          : 1h 34mn
Bit rate mode                            : Constante
Bit rate                                 : 448 Kbps
Channel(s)                               : 6 canais
Channel positions                        : Front: L C R, Side: L R, LFE
Sampling rate                            : 48.0 KHz
Bit depth                                : 16 bits
Stream size                              : 304 MiB (22%)
Alignment                                : Alinhado intercalado
Interleave, duration                     : 42 ms (1.00 quadro de vídeo)

